<svg width="32" height="32" viewBox="0 0 32 32" fill="none" xmlns="http://www.w3.org/2000/svg">
<rect width="32" height="32" rx="3" fill="white"/>
<path d="M11.6195 9.6001C12.223 9.6001 12.7807 9.64569 13.2925 9.78246C13.8031 9.87364 14.2233 10.0638 14.5964 10.2918C14.9708 10.521 15.247 10.8467 15.4355 11.2648C15.6188 11.6816 15.7183 12.1909 15.7183 12.7458C15.7183 13.3919 15.5795 13.9468 15.2523 14.3636C14.9708 14.7804 14.5113 15.153 13.9471 15.4278C14.7404 15.6571 15.3439 16.0739 15.7118 16.6288C16.0796 17.1837 16.3153 17.8753 16.3153 18.6647C16.3153 19.3108 16.1778 19.8657 15.9422 20.3294C15.7071 20.7961 15.3544 21.1942 14.9184 21.4848C14.4995 21.7648 13.9877 21.9928 13.43 22.1308C12.8837 22.2744 12.3219 22.3514 11.7569 22.3601L5.52686 22.3692V9.6001H11.6195ZM11.2464 14.7817C11.7569 14.7817 12.1758 14.645 12.4992 14.4105C12.8212 14.176 12.9639 13.7631 12.9639 13.2551C12.9639 12.9738 12.9181 12.7002 12.8265 12.5166C12.7273 12.3304 12.5834 12.1716 12.4076 12.0541C12.2176 11.9511 12.0147 11.874 11.8041 11.8249C11.5736 11.7793 11.338 11.7793 11.0618 11.7793H8.36763V14.7882C8.36763 14.7817 11.2477 14.7817 11.2477 14.7817H11.2464ZM11.3838 20.2434C11.6653 20.2434 11.9415 20.1978 12.1771 20.1522C12.4076 20.1066 12.6432 20.0142 12.8265 19.8709C13.0097 19.7276 13.1537 19.5908 13.2925 19.3629C13.3842 19.1336 13.4758 18.8536 13.4758 18.5279C13.4758 17.8819 13.2925 17.4181 12.9181 17.0925C12.545 16.8124 12.0331 16.6757 11.4296 16.6757H8.36763V20.2369H11.3851V20.2434H11.3838ZM20.3617 20.1978C20.7361 20.5691 21.2925 20.7527 22.0348 20.7527C22.5453 20.7527 23.0114 20.6147 23.3858 20.3802C23.7589 20.1001 23.988 19.8253 24.0796 19.5465H26.3575C25.9831 20.655 25.4254 21.4444 24.6844 21.9537C23.9435 22.4161 23.0572 22.691 21.9876 22.691C21.3037 22.694 20.6254 22.568 19.9886 22.3197C19.4155 22.1077 18.9041 21.7578 18.5002 21.3011C18.0693 20.8753 17.7493 20.3512 17.5681 19.7745C17.339 19.174 17.2408 18.5279 17.2408 17.7842C17.2408 17.0925 17.3324 16.4399 17.5681 15.8394C17.8037 15.2402 18.1258 14.7296 18.546 14.2672C18.9649 13.8504 19.4768 13.4779 20.0344 13.2486C20.6563 13.0023 21.3196 12.8763 21.989 12.8774C22.7823 12.8774 23.4774 13.0141 24.0809 13.3398C24.6831 13.6654 25.1505 14.0328 25.5236 14.5876C25.8967 15.0957 26.1729 15.6961 26.3627 16.3435C26.4543 16.9896 26.5002 17.6409 26.4543 18.3794H19.7124C19.7124 19.1349 19.9873 19.8253 20.3617 20.1978V20.1978ZM23.2941 15.3366C22.9669 15.011 22.4537 14.8273 21.8502 14.8273C21.4313 14.8273 21.1092 14.9185 20.8278 15.0566C20.5463 15.1933 20.3617 15.3822 20.1784 15.5646C20.0073 15.7434 19.8934 15.9687 19.8512 16.212C19.804 16.4399 19.7595 16.6288 19.7595 16.8111H23.9435C23.8518 16.126 23.6162 15.6623 23.2928 15.3366H23.2941ZM19.2005 10.4806H24.4082V11.7272H19.2005V10.4806V10.4806Z" fill="#08070C"/>
</svg>
